#Comment line ignore any data following # character 
#Hierarchical Translation and Rotation (.htr) file 
[Header]	
#Header keywords are followed by a single value 
FileType HTR		#Single word string
DataType HTRS		#Translation followed by rotation and scale data
FileVersion 1		#integer
NumSegments 29		#integer
NumFrames 4		#integer
DataFrameRate 30		#integer, data frame rate in this file
EulerRotationOrder ZYX
CalibrationUnits mm
RotationUnits Degrees
GlobalAxisofGravity Y
BoneLengthAxis Y
ScaleFactor 1.00
[SegmentNames&Hierarchy]
#CHILD	PARENT
MASTER GLOBAL
weapon MASTER
back_slider weapon
front_bottom weapon
front_middle_part1 weapon
front_middle_part2 weapon
front_middle_part3 weapon
front_middle_part4 weapon
front_top weapon
wing_bottom_left weapon
wing_bottom_right weapon
wing_top_left weapon
wing_top_right weapon
front_bottom_rumble_left front_bottom
front_bottom_rumble_right front_bottom
back_rotate_bottom_left front_middle_part3
back_rotate_bottom_right front_middle_part3
back_rotate_top_left front_middle_part3
back_rotate_top_right front_middle_part3
front_middle_part3_left front_middle_part3
front_middle_part3_right front_middle_part3
wing_bottom_left_buckets_1 wing_bottom_left
wing_bottom_left_buckets_2 wing_bottom_left
wing_bottom_left_buckets_3 wing_bottom_left
wing_bottom_right_buckets wing_bottom_right
wing_top_left_buckets wing_top_left
wing_top_left_buckets_1 wing_top_left
wing_top_left_buckets_3 wing_top_left
wing_top_right_buckets wing_top_right
[BasePosition]
#SegmentName Tx, Ty, Tz, Rx, Ry, Rz, BoneLength
MASTER 0.000000 0.000000 0.000000 -90.000000 0.000000 0.000000 10.000000 
weapon 0.000000 0.000000 0.000000 0.000000 0.000000 0.000000 10.000000 
back_slider 0.000000 0.000000 0.000000 0.000000 0.000000 0.000000 10.000000 
front_bottom 0.000000 0.000000 0.000000 0.000000 0.000000 0.000000 10.000000 
front_middle_part1 0.000000 0.000000 0.000000 0.000000 0.000000 0.000000 10.000000 
front_middle_part2 0.000000 0.000000 0.000000 0.000000 0.000000 0.000000 10.000000 
front_middle_part3 0.000000 0.000000 0.000000 0.000000 0.000000 0.000000 10.000000 
front_middle_part4 0.000000 0.000000 0.000000 0.000000 0.000000 0.000000 10.000000 
front_top 0.000000 0.000000 0.000000 0.000000 0.000000 0.000000 10.000000 
wing_bottom_left 0.000000 0.000000 0.000000 0.000000 0.000000 0.000000 10.000000 
wing_bottom_right 0.000000 0.000000 0.000000 0.000000 0.000000 0.000000 10.000000 
wing_top_left 0.000000 0.000000 0.000000 0.000000 0.000000 0.000000 10.000000 
wing_top_right 0.000000 0.000000 0.000000 0.000000 0.000000 0.000000 10.000000 
front_bottom_rumble_left 0.000000 0.000000 0.000000 0.000000 0.000000 0.000000 10.000000 
front_bottom_rumble_right 0.000000 0.000000 0.000000 0.000000 0.000000 0.000000 10.000000 
back_rotate_bottom_left 0.000000 0.000000 0.000000 0.000000 0.000000 0.000000 10.000000 
back_rotate_bottom_right 0.000000 0.000000 0.000000 0.000000 0.000000 0.000000 10.000000 
back_rotate_top_left 0.000000 0.000000 0.000000 0.000000 0.000000 0.000000 10.000000 
back_rotate_top_right 0.000000 0.000000 0.000000 0.000000 0.000000 0.000000 10.000000 
front_middle_part3_left 0.000000 0.000000 0.000000 0.000000 0.000000 0.000000 10.000000 
front_middle_part3_right 0.000000 0.000000 0.000000 0.000000 0.000000 0.000000 10.000000 
wing_bottom_left_buckets_1 0.000000 0.000000 0.000000 0.000000 0.000000 0.000000 10.000000 
wing_bottom_left_buckets_2 0.000000 0.000000 0.000000 0.000000 0.000000 0.000000 10.000000 
wing_bottom_left_buckets_3 0.000000 0.000000 0.000000 0.000000 0.000000 0.000000 10.000000 
wing_bottom_right_buckets 0.000000 0.000000 0.000000 0.000000 0.000000 0.000000 10.000000 
wing_top_left_buckets 0.000000 0.000000 0.000000 0.000000 0.000000 0.000000 10.000000 
wing_top_left_buckets_1 0.000000 0.000000 0.000000 0.000000 0.000000 0.000000 10.000000 
wing_top_left_buckets_3 0.000000 0.000000 0.000000 0.000000 0.000000 0.000000 10.000000 
wing_top_right_buckets 0.000000 0.000000 0.000000 0.000000 0.000000 0.000000 10.000000 
#Beginning of Data. Separated by tabs
#Fr	Tx	Ty	Tz	Rx	Ry	Rz	SF
[MASTER]
18 0.000000 0.000000 0.000000 0.000000 0.000000 -0.000020 0.000000
19 0.000000 0.000000 0.000000 0.000000 0.000000 -0.000020 0.000000
20 0.000000 0.000000 0.000000 0.000000 0.000000 -0.000020 0.000000
21 0.000000 0.000000 0.000000 0.000000 0.000000 -0.000020 0.000000
[weapon]
18 0.000000 -79.014671 86.001648 0.000000 -0.000000 0.000000 116.788712
19 0.000000 -79.014671 86.001648 0.000000 -0.000000 0.000000 116.788712
20 0.000000 -79.014671 86.001648 0.000000 -0.000000 0.000000 116.788712
21 0.000000 -79.014671 86.001648 0.000000 -0.000000 0.000000 116.788712
[back_slider]
18 0.000076 -162.686539 -85.991974 0.000000 -0.000000 0.000000 184.015030
19 0.000153 -158.826309 -85.992126 0.000000 -0.000000 0.000000 180.611298
20 0.000076 -151.657257 -85.992126 0.000000 -0.000000 0.000000 174.340378
21 0.000076 -147.796967 -85.991974 0.000000 -0.000000 0.000000 170.992874
[front_bottom]
18 0.000038 568.650146 -272.998810 7.911147 -0.001541 179.998230 630.786316
19 0.000000 571.096252 -271.286926 8.040049 -0.001539 179.998230 632.255920
20 0.000038 575.638916 -268.107605 8.173918 -0.001537 179.998230 635.013245
21 0.000038 578.084900 -266.395630 8.307798 -0.001535 179.998230 636.513000
[front_middle_part1]
18 0.000000 519.313477 -85.992035 179.998810 -65.795937 179.998810 526.384949
19 0.000000 519.313477 -85.992035 179.998779 -55.619461 179.998779 526.384949
20 0.000000 519.313477 -85.992035 179.998734 -45.283245 179.998734 526.384949
21 0.000000 519.313477 -85.992035 179.998688 -34.846054 179.998688 526.384949
[front_middle_part2]
18 0.000000 477.040344 -85.992035 179.990891 75.201622 179.990891 484.728912
19 0.000000 477.040344 -85.992035 179.994568 65.018173 179.994568 484.728912
20 0.000000 477.040344 -85.992035 179.996124 54.685837 179.996124 484.728912
21 0.000000 477.040344 -85.992035 179.996994 44.249195 179.996994 484.728912
[front_middle_part3]
18 0.000114 -247.852005 -85.991974 0.000000 -0.000000 0.000000 262.345612
19 0.000038 -237.874756 -85.992126 0.000000 -0.000000 0.000000 252.940811
20 0.000076 -247.852036 -85.991974 0.000000 -0.000000 0.000000 262.345673
21 0.000038 -266.381287 -85.992279 0.000000 -0.000000 0.000000 279.917236
[front_middle_part4]
18 0.000000 -443.853668 -85.992035 0.000000 -0.000000 0.000000 452.106964
19 0.000000 -443.853668 -85.992035 0.000000 -0.000000 0.000000 452.106964
20 0.000000 -443.853668 -85.992035 0.000000 -0.000000 0.000000 452.106964
21 0.000000 -443.853668 -85.992035 0.000000 -0.000000 0.000000 452.106964
[front_top]
18 0.000000 523.450989 -157.672974 6.885243 0.001557 0.001756 546.682434
19 0.000000 523.450989 -157.672974 3.864979 0.001603 0.001715 546.682434
20 0.000000 523.450989 -157.672974 6.885260 0.001557 0.001756 546.682434
21 0.000000 523.450989 -157.672974 12.489505 0.001469 0.001830 546.682434
[wing_bottom_left]
18 -124.333710 235.191696 -217.766312 164.020874 53.371746 160.366013 343.796692
19 -124.333710 235.191696 -217.766312 163.461380 53.250935 159.665146 343.796692
20 -124.333710 235.191696 -217.766312 163.461380 53.250935 159.665146 343.796692
21 -124.333710 235.191696 -217.766312 163.461380 53.250935 159.665146 343.796692
[wing_bottom_right]
18 124.947586 235.191696 -217.766144 0.000000 54.999989 0.000000 344.019073
19 124.947586 235.191696 -217.766144 0.000000 54.999989 0.000000 344.019073
20 124.947586 235.191696 -217.766144 0.000000 54.999989 0.000000 344.019073
21 124.947586 235.191696 -217.766144 0.000000 54.999989 0.000000 344.019073
[wing_top_left]
18 -124.333710 235.191696 62.502743 -157.248306 -51.536911 151.828812 273.277527
19 -124.333710 235.191696 62.502743 -157.248306 -51.536911 151.828812 273.277527
20 -124.333710 235.191696 62.502743 -157.335083 -51.565441 151.938309 273.277527
21 -124.333710 235.191696 62.502743 -157.532364 -51.634274 152.188614 273.277527
[wing_top_right]
18 131.595657 235.191696 62.502682 -0.000000 -55.000015 0.000000 276.657074
19 131.595657 235.191696 62.502682 -0.000000 -55.000015 0.000000 276.657074
20 131.595657 235.191696 62.502682 -0.000000 -55.000015 0.000000 276.657074
21 131.595657 235.191696 62.502682 -0.000000 -55.000015 0.000000 276.657074
[front_bottom_rumble_left]
18 163.070297 263.743958 -16.969442 -129.881882 18.229330 75.387009 310.549133
19 163.070297 263.743958 -16.969442 -129.881882 18.229330 75.387009 310.549133
20 163.070297 263.743958 -16.969442 -129.881882 18.229330 75.387009 310.549133
21 163.070297 263.743958 -16.969442 -129.881882 18.229330 75.387009 310.549133
[front_bottom_rumble_right]
18 -163.070480 263.743835 -16.969442 -50.118145 18.229362 104.612976 310.549133
19 -163.070480 263.743835 -16.969442 -50.118145 18.229362 104.612976 310.549133
20 -163.070480 263.743835 -16.969442 -50.118145 18.229362 104.612976 310.549133
21 -163.070480 263.743835 -16.969442 -50.118145 18.229362 104.612976 310.549133
[back_rotate_bottom_left]
18 -38.067558 -195.870575 -38.097980 0.000000 -0.000000 0.000000 203.140045
19 -38.067558 -195.870575 -38.097980 0.000000 -0.000000 0.000000 203.140045
20 -38.067558 -195.870575 -38.097980 0.000000 -0.000000 0.000000 203.140045
21 -38.067558 -195.870575 -38.097980 0.000000 -0.000000 0.000000 203.140045
[back_rotate_bottom_right]
18 38.098610 -195.870575 -38.057903 0.000000 -0.000000 0.000000 203.138351
19 38.098610 -195.870575 -38.057903 0.000000 -0.000000 0.000000 203.138351
20 38.098610 -195.870575 -38.057903 0.000000 -0.000000 0.000000 203.138351
21 38.098610 -195.870575 -38.057903 0.000000 -0.000000 0.000000 203.138351
[back_rotate_top_left]
18 -38.074085 -195.870575 38.105885 0.000000 -0.000000 0.000000 203.142746
19 -38.074085 -195.870575 38.105885 0.000000 -0.000000 0.000000 203.142746
20 -38.074085 -195.870575 38.105885 0.000000 -0.000000 0.000000 203.142746
21 -38.074085 -195.870575 38.105885 0.000000 -0.000000 0.000000 203.142746
[back_rotate_top_right]
18 38.111603 -195.870575 38.079086 0.000000 -0.000000 0.000000 203.144760
19 38.111603 -195.870575 38.079086 0.000000 -0.000000 0.000000 203.144760
20 38.111603 -195.870575 38.079086 0.000000 -0.000000 0.000000 203.144760
21 38.111603 -195.870575 38.079086 0.000000 -0.000000 0.000000 203.144760
[front_middle_part3_left]
18 -90.176353 364.727234 0.463104 89.999939 -0.000005 -10.314104 375.709900
19 -90.176353 364.727234 0.463104 89.999565 -0.000019 -5.126138 375.709900
20 -90.176353 364.727234 0.463104 89.997849 0.000084 4.500817 375.709900
21 -90.176353 364.727234 0.463104 90.001221 -0.000103 9.686920 375.709900
[front_middle_part3_right]
18 91.046051 364.727081 0.046265 -90.000000 0.000003 180.000000 375.919159
19 91.046051 364.727081 0.046265 -90.000000 0.000003 180.000000 375.919159
20 91.046051 364.727081 0.046265 -90.000000 0.000003 180.000000 375.919159
21 91.046051 364.727081 0.046265 -90.000000 0.000003 180.000000 375.919159
[wing_bottom_left_buckets_1]
18 -47.610477 -288.454193 -9.889640 -0.000027 0.000020 -0.000035 292.524170
19 -47.610477 -288.454193 -9.889640 -0.000027 0.000020 -0.000035 292.524170
20 -47.610477 -288.454193 -9.889640 -0.000027 0.000020 -0.000035 292.524170
21 -47.610477 -288.454193 -9.889640 -0.000027 0.000020 -0.000035 292.524170
[wing_bottom_left_buckets_2]
18 -47.610565 -358.672546 -9.889595 -0.000031 -0.000003 -0.000031 361.953827
19 -47.610565 -358.672546 -9.889595 -0.000031 -0.000003 -0.000031 361.953827
20 -47.610565 -358.672546 -9.889595 -0.000031 -0.000003 -0.000031 361.953827
21 -47.610565 -358.672546 -9.889595 -0.000031 -0.000003 -0.000031 361.953827
[wing_bottom_left_buckets_3]
18 -47.610672 -428.104828 -9.889513 -0.000027 0.000020 -0.000035 430.857635
19 -47.610672 -428.104828 -9.889513 -0.000027 0.000020 -0.000035 430.857635
20 -47.610672 -428.104828 -9.889513 -0.000027 0.000020 -0.000035 430.857635
21 -47.610672 -428.104828 -9.889513 -0.000027 0.000020 -0.000035 430.857635
[wing_bottom_right_buckets]
18 -47.962635 -358.672546 9.386807 0.000027 0.000061 -0.000035 361.986908
19 -47.962635 -358.672546 9.386807 0.000027 0.000061 -0.000035 361.986908
20 -47.962635 -358.672546 9.386807 0.000027 0.000061 -0.000035 361.986908
21 -47.962635 -358.672546 9.386807 0.000027 0.000061 -0.000035 361.986908
[wing_top_left_buckets]
18 -45.484066 -358.586609 10.598831 0.000027 0.000000 -0.000031 361.615112
19 -45.484066 -358.586609 10.598831 0.000027 0.000000 -0.000031 361.615112
20 -45.484066 -358.586609 10.598831 0.000027 0.000000 -0.000031 361.615112
21 -45.484066 -358.586609 10.598831 0.000027 0.000000 -0.000031 361.615112
[wing_top_left_buckets_1]
18 -45.484005 -287.973450 10.598879 0.000027 0.000000 -0.000035 291.735931
19 -45.484005 -287.973450 10.598879 0.000027 0.000000 -0.000035 291.735931
20 -45.484005 -287.973450 10.598879 0.000027 0.000000 -0.000035 291.735931
21 -45.484005 -287.973450 10.598879 0.000027 0.000000 -0.000035 291.735931
[wing_top_left_buckets_3]
18 -45.484154 -426.601654 10.598794 0.000027 0.000000 -0.000035 429.150452
19 -45.484154 -426.601654 10.598794 0.000027 0.000000 -0.000035 429.150452
20 -45.484154 -426.601654 10.598794 0.000027 0.000000 -0.000035 429.150452
21 -45.484154 -426.601654 10.598794 0.000027 0.000000 -0.000035 429.150452
[wing_top_right_buckets]
18 -46.906902 -358.586700 -9.449236 -0.000044 -0.000038 -0.000035 361.765076
19 -46.906902 -358.586700 -9.449236 -0.000044 -0.000038 -0.000035 361.765076
20 -46.906902 -358.586700 -9.449236 -0.000044 -0.000038 -0.000035 361.765076
21 -46.906902 -358.586700 -9.449236 -0.000044 -0.000038 -0.000035 361.765076
